<svg xmlns="http://www.w3.org/2000/svg" xmlns:xlink="http://www.w3.org/1999/xlink" xmlns:serif="http://www.serif.com/" width="100%" height="100%" viewBox="0 0 2096 2600" xml:space="preserve" style="fill-rule:evenodd;clip-rule:evenodd;stroke-linejoin:round;stroke-miterlimit:2;">    <g transform="matrix(1,0,0,1,-227.133,-350.003)">        <g transform="matrix(4.16667,0,0,4.16667,0,0)">            <g transform="matrix(1,0,0,1,307.172,633.046)">                <path d="M0,-474.083C22.71,-474.083 45.421,-474.082 68.132,-474.084C71.762,-474.085 71.788,-474.109 71.79,-477.65C71.795,-489.885 71.793,-502.12 71.791,-514.355C71.791,-518.742 71.788,-518.746 67.431,-518.746C22.489,-518.747 -22.452,-518.747 -67.394,-518.746C-68.113,-518.746 -68.836,-518.771 -69.552,-518.717C-71.25,-518.589 -71.627,-518.21 -71.754,-516.531C-71.802,-515.895 -71.779,-515.252 -71.779,-514.612C-71.78,-502.377 -71.781,-490.143 -71.778,-477.908C-71.777,-474.09 -71.771,-474.084 -67.893,-474.084C-45.262,-474.082 -22.631,-474.083 0,-474.083M-252.654,-199.088C-252.654,-288.201 -252.654,-377.314 -252.66,-466.427C-252.66,-468.27 -252.595,-470.101 -252.333,-471.929C-252.17,-473.054 -251.616,-473.612 -250.492,-473.763C-248.822,-473.986 -247.154,-474.09 -245.47,-474.089C-199.633,-474.081 -153.797,-474.083 -107.96,-474.084C-107.081,-474.084 -106.197,-474.047 -105.322,-474.115C-103.86,-474.23 -103.572,-474.541 -103.458,-476.048C-103.405,-476.765 -103.434,-477.488 -103.434,-478.208C-103.433,-490.927 -103.384,-503.646 -103.475,-516.364C-103.492,-518.882 -102.817,-520.827 -100.906,-522.487C-95.65,-527.053 -90.967,-532.225 -85.851,-536.93C-82.374,-540.126 -79.009,-543.428 -75.696,-546.779C-74.102,-548.392 -72.394,-549.027 -70.158,-549.021C-50.24,-548.968 -30.321,-548.991 -10.403,-548.991C16.235,-548.991 42.873,-548.952 69.511,-549.045C72.523,-549.055 74.788,-548.308 76.432,-545.732C76.98,-544.872 77.812,-544.183 78.546,-543.448C85.615,-536.377 92.652,-529.272 99.796,-522.276C101.407,-520.698 102.122,-519.074 102.107,-516.803C102.021,-503.765 102.063,-490.725 102.067,-477.686C102.068,-474.094 102.077,-474.084 105.663,-474.084C151.58,-474.083 197.496,-474.083 243.413,-474.085C245.014,-474.085 246.604,-474.034 248.197,-473.807C249.547,-473.615 250.167,-472.889 250.252,-471.596C250.278,-471.197 250.298,-470.797 250.302,-470.398C250.311,-469.598 250.308,-468.798 250.308,-467.998L250.308,69.32C250.308,70.28 250.337,71.242 250.286,72.199C250.187,74.1 249.92,74.403 248.08,74.676C247.134,74.815 246.173,74.878 245.216,74.932C244.498,74.972 243.776,74.943 243.057,74.943C80.589,74.943 -81.878,74.942 -244.345,74.95C-246.268,74.95 -248.182,74.89 -250.09,74.652C-251.966,74.419 -252.237,74.22 -252.484,72.319C-252.638,71.136 -252.648,69.928 -252.648,68.73C-252.656,18.574 -252.654,-31.582 -252.654,-81.738L-252.654,-199.088Z" style="fill:rgb(237,27,41);fill-rule:nonzero;"></path>            </g>        </g>        <g transform="matrix(4.16667,0,0,4.16667,0,0)">            <g transform="matrix(1,0,0,1,115.463,349.487)">                <path d="M0,-0.056C0,20.419 -0.002,40.893 0.002,61.368C0.002,64.77 0.057,64.819 3.519,64.824C8.078,64.832 12.637,64.829 17.196,64.825C21.05,64.822 21.056,64.819 21.056,60.982C21.058,39.707 21.057,18.433 21.059,-2.842C21.059,-3.801 21.052,-4.763 21.107,-5.72C21.144,-6.348 21.169,-7.09 21.96,-7.261C22.731,-7.429 23.119,-6.798 23.422,-6.248C24.115,-4.988 24.772,-3.705 25.392,-2.407C27.734,2.498 29.888,7.502 32.418,12.307C38.456,23.769 43.98,35.486 49.826,47.041C52.533,52.391 55.232,57.744 57.904,63.111C58.462,64.233 59.239,64.827 60.522,64.82C64.84,64.799 69.159,64.801 73.478,64.822C74.815,64.828 75.78,64.294 76.401,63.112C76.698,62.547 77.039,62.004 77.327,61.434C83.096,50.016 89.651,39.024 95.63,27.717C100.113,19.239 104.847,10.895 109.469,2.49C110.817,0.039 112.159,-2.416 113.516,-4.864C113.828,-5.426 114.182,-6.072 114.939,-5.945C115.811,-5.799 115.968,-5.003 116.029,-4.282C116.108,-3.328 116.107,-2.365 116.107,-1.406C116.111,19.308 116.109,40.023 116.112,60.737C116.112,61.537 116.123,62.337 116.154,63.136C116.196,64.191 116.769,64.74 117.817,64.784C118.456,64.811 119.096,64.824 119.735,64.824C126.294,64.827 132.852,64.827 139.411,64.826C143.916,64.825 143.918,64.823 143.918,60.337L143.918,-60.351C143.918,-60.911 143.929,-61.472 143.912,-62.031C143.839,-64.446 143.541,-64.776 141.073,-64.79C135.875,-64.82 130.674,-64.72 125.478,-64.839C123.313,-64.888 122.125,-64.036 121.244,-62.112C119.747,-58.845 118.111,-55.632 116.372,-52.486C109.333,-39.75 102.961,-26.663 95.967,-13.905C93.123,-8.718 90.475,-3.428 87.768,1.832C83.526,10.075 79.095,18.221 74.73,26.402C74.355,27.103 73.952,27.814 73.431,28.406C72.639,29.307 71.987,29.24 71.29,28.296C71.054,27.977 70.891,27.604 70.69,27.258C68.325,23.173 66.322,18.9 64.155,14.712C59.121,4.988 53.792,-4.578 48.875,-14.366C44.57,-22.935 39.768,-31.246 35.424,-39.802C31.59,-47.351 27.472,-54.755 23.58,-62.275C22.657,-64.059 21.52,-64.875 19.471,-64.834C14.274,-64.73 9.075,-64.804 3.876,-64.801C0.006,-64.799 0.001,-64.796 0,-61C-0.001,-40.685 0,-20.37 0,-0.056" style="fill:white;fill-rule:nonzero;"></path>            </g>        </g>        <g transform="matrix(4.16667,0,0,4.16667,0,0)">            <g transform="matrix(1,0,0,1,439.924,349.526)">                <path d="M0,-0.05L0,-28.13C-0.001,-39.569 0.006,-51.009 -0.006,-62.449C-0.009,-65.492 -0.219,-65.687 -3.301,-65.697C-7.7,-65.711 -12.101,-65.702 -16.5,-65.7C-20.619,-65.698 -20.623,-65.696 -20.623,-61.621C-20.625,-38.422 -20.624,-15.222 -20.626,7.977C-20.626,8.857 -20.625,9.738 -20.673,10.616C-20.702,11.173 -20.767,11.779 -21.459,11.938C-21.991,12.06 -22.389,11.734 -22.707,11.373C-23.816,10.114 -24.925,8.852 -25.994,7.559C-29.966,2.754 -33.913,-2.072 -37.889,-6.874C-40.59,-10.136 -43.336,-13.361 -46.041,-16.619C-52.27,-24.12 -58.492,-31.625 -64.702,-39.142C-71.575,-47.46 -78.45,-55.776 -85.269,-64.138C-86.173,-65.247 -87.145,-65.734 -88.538,-65.712C-91.578,-65.664 -94.618,-65.701 -97.658,-65.7C-102.658,-65.7 -102.661,-65.699 -102.661,-60.578C-102.662,-20.259 -102.662,20.06 -102.662,60.38C-102.662,61.179 -102.673,61.98 -102.657,62.779C-102.604,65.378 -102.361,65.644 -99.718,65.659C-94.918,65.684 -90.118,65.67 -85.318,65.668C-81.247,65.666 -81.244,65.664 -81.244,61.552C-81.243,38.032 -81.243,14.512 -81.243,-9.008C-81.243,-9.887 -81.269,-10.769 -81.226,-11.647C-81.188,-12.422 -81.43,-13.432 -80.583,-13.813C-79.644,-14.236 -79.211,-13.214 -78.706,-12.673C-77.398,-11.271 -76.113,-9.842 -74.91,-8.35C-67.483,0.859 -59.626,9.702 -51.96,18.707C-44.81,27.106 -37.703,35.543 -30.427,43.836C-24.525,50.562 -18.917,57.544 -12.998,64.26C-12.188,65.179 -11.337,65.681 -10.122,65.667C-8.042,65.641 -5.962,65.669 -3.882,65.668C-0.007,65.665 -0.002,65.663 -0.001,61.869C0.001,41.229 0,20.59 0,-0.05" style="fill:white;fill-rule:nonzero;"></path>            </g>        </g>        <g transform="matrix(4.16667,0,0,4.16667,0,0)">            <g transform="matrix(1,0,0,1,302.04,521.594)">                <path d="M0,39.3C-1.21,46.47 -3.04,53.539 -6.92,59.829C-10.72,66.02 -16.09,70.1 -23.52,70.659C-29.22,71.09 -34.19,69.029 -38.38,65.159C-42.18,61.65 -44.55,57.249 -46.24,52.43C-48.22,46.76 -49.27,40.86 -50.13,34.949C-50.63,31.56 -50.65,28.1 -50.78,24.67C-51.06,17.159 -50.69,9.64 -50.18,2.15C-49.96,-1.14 -49.29,-4.461 -48.57,-7.74C-47.77,-11.421 -46.87,-15.06 -45.37,-18.501C-42.75,-24.501 -38.73,-29.29 -32.39,-31.551C-21.51,-35.43 -10.78,-31.15 -5.15,-20.35C-3.79,-17.73 -2.8,-14.921 -1.97,-12.1C-1.18,-9.43 -0.38,-6.7 -0.11,-3.95C0.23,-0.62 1.08,14.029 1.08,18.029L1.16,18.029C1.16,19.55 0.93,33.8 0,39.3M28.55,1.199C27.771,-3.87 26.76,-8.87 25.14,-13.721C22.56,-21.461 18.6,-28.461 13.29,-34.671C9.35,-39.28 4.73,-43.091 -0.85,-45.551C-7.05,-48.29 -13.59,-49.73 -20.41,-49.761C-23.13,-49.77 -25.85,-49.73 -28.57,-49.77C-34.89,-49.85 -40.95,-48.511 -46.85,-46.36C-54.18,-43.7 -59.66,-38.511 -64.45,-32.68C-73.08,-22.14 -76.89,-9.551 -78.49,3.72C-79.08,8.68 -79.29,13.749 -79.13,18.8C-79.05,21.279 -78.01,34.18 -77.41,38.11C-76.64,43.14 -75.51,48.13 -73.81,52.97C-70.49,62.42 -66.08,71.13 -58.35,77.93C-52.71,82.9 -46.19,85.92 -39.01,87.44C-32.68,88.779 -26.25,89.15 -19.72,88.67C-14.06,88.26 -8.63,87.239 -3.37,85.26C1.71,83.36 6.24,80.539 10.14,76.76C14.91,72.14 18.37,66.65 21.2,60.65C24.95,52.68 27.15,44.27 28.25,35.619C29.05,29.38 29.34,6.38 28.55,1.199" style="fill:white;fill-rule:nonzero;"></path>            </g>        </g>        <g transform="matrix(4.16667,0,0,4.16667,0,0)">            <g transform="matrix(1,0,0,1,181.333,507.699)">                <path d="M0,66.646C0.289,69.32 -1.135,72.385 -3.508,75.044C-7.06,79.025 -11.7,81.124 -16.815,82.125C-23.306,83.397 -29.905,83.045 -36.429,82.614C-44.342,82.09 -52.058,80.263 -59.581,77.703C-61.701,76.981 -62.063,77.098 -62.622,79.248C-63.182,81.399 -63.353,83.633 -63.863,85.813C-64.535,88.679 -64.849,91.627 -65.369,94.532C-65.749,96.649 -65.75,96.771 -63.662,97.463C-59.41,98.874 -55.063,99.883 -50.671,100.793C-45.33,101.901 -39.943,102.473 -34.529,102.825C-31.349,103.031 -28.179,103.619 -24.961,103.194C-22.588,102.879 -20.199,102.649 -17.811,102.479C-10.497,101.959 -3.427,100.369 3.363,97.624C18.392,91.548 26.932,78.472 27.204,62.332C27.244,59.986 26.647,57.736 26.34,55.442C25.563,49.633 23.016,44.704 19.16,40.327C12.659,32.948 4.379,28.173 -4.38,24.144C-10.549,21.307 -16.879,18.82 -23.112,16.119C-28.32,13.862 -33.05,10.814 -36.489,6.255C-40.499,0.943 -40.562,-4.03 -36.619,-9.146C-34.062,-12.464 -30.551,-14.471 -26.513,-15.682C-19.015,-17.931 -11.337,-17.986 -3.686,-17.374C2.666,-16.865 9.015,-15.946 15.082,-13.737C16.687,-13.153 17.208,-13.563 17.539,-15.281C18.114,-18.262 18.736,-21.235 19.251,-24.226C19.577,-26.116 19.957,-27.99 20.348,-29.866C20.786,-31.963 20.292,-32.602 18.218,-33.048C15.717,-33.587 13.211,-34.111 10.692,-34.549C3.519,-35.799 -3.73,-36.342 -10.991,-36.724C-15.721,-36.973 -20.401,-36.301 -25.094,-35.869C-31.429,-35.287 -37.558,-33.824 -43.426,-31.395C-46.152,-30.267 -48.826,-28.97 -51.219,-27.183C-58.782,-21.537 -63.016,-13.791 -64.75,-4.733C-65.897,1.26 -65.708,7.371 -63.875,13.288C-62.685,17.132 -60.934,20.744 -58.28,23.799C-53.775,28.987 -48.409,33.094 -42.283,36.236C-34.871,40.037 -27.054,42.908 -19.466,46.303C-15.596,48.035 -11.666,49.712 -8.139,52.05C-3.345,55.23 -0.037,59.493 0,66.646" style="fill:white;fill-rule:nonzero;"></path>            </g>        </g>        <g transform="matrix(4.16667,0,0,4.16667,0,0)">            <g transform="matrix(1,0,0,1,358.67,610.447)">                <path d="M0,-78.508L0,-78.515C-2.079,-78.515 -4.159,-78.529 -6.238,-78.512C-9.255,-78.487 -9.391,-78.285 -9.479,-75.178C-9.635,-69.788 -8.771,-64.53 -7.709,-59.272C-6.177,-51.678 -3.395,-44.57 0.242,-37.766C2.516,-33.51 5.506,-29.766 8.556,-26.062C13.271,-20.335 18.872,-15.606 25.004,-11.485C31.035,-7.431 37.685,-4.714 44.636,-2.725C48.864,-1.514 53.175,-0.551 57.575,-0.366C61.468,-0.204 65.35,0.039 69.284,-0.198C74.998,-0.542 80.531,-1.535 85.992,-3.121C94.536,-5.603 102.334,-9.548 109.319,-15.07C113.719,-18.549 117.851,-22.312 121.384,-26.685C125.419,-31.678 128.778,-37.09 131.586,-42.876C136.599,-53.206 138.996,-64.082 138.831,-75.541C138.795,-78.019 138.372,-78.472 135.863,-78.496C131.386,-78.541 126.906,-78.537 122.429,-78.502C120.01,-78.484 119.637,-78.157 119.705,-75.667C119.844,-70.589 119.017,-65.663 117.799,-60.759C114.854,-48.891 108.113,-39.441 99.009,-31.612C93.169,-26.589 86.216,-23.491 78.84,-21.38C69.627,-18.743 60.35,-18.69 51.129,-21.198C40.731,-24.027 31.687,-29.145 24.355,-37.237C18.657,-43.526 14.791,-50.779 12.106,-58.724C10.202,-64.362 9.476,-70.221 9.232,-76.15C9.153,-78.082 8.766,-78.449 6.717,-78.496C4.479,-78.547 2.239,-78.508 0,-78.508" style="fill:white;fill-rule:nonzero;"></path>            </g>        </g>        <g transform="matrix(4.16667,0,0,4.16667,0,0)">            <g transform="matrix(1,0,0,1,495.535,349.683)">                <path d="M0,0.031C0,-20.288 0,-40.606 -0.001,-60.925C-0.001,-61.724 -0.016,-62.524 -0.031,-63.324C-0.052,-64.373 -0.563,-64.967 -1.637,-65.009C-2.276,-65.033 -2.916,-65.049 -3.556,-65.049C-11.555,-65.052 -19.555,-65.054 -27.554,-65.049C-31.143,-65.047 -31.153,-65.038 -31.153,-61.434C-31.155,-20.477 -31.154,20.48 -31.153,61.438C-31.153,62.077 -31.137,62.717 -31.121,63.357C-31.095,64.409 -30.565,64.99 -29.502,65.037C-28.783,65.069 -28.063,65.08 -27.344,65.08C-19.504,65.083 -11.665,65.085 -3.825,65.081C-0.006,65.08 -0.001,65.075 -0.001,61.227C0.001,40.828 0,20.429 0,0.031" style="fill:white;fill-rule:nonzero;"></path>            </g>        </g>        <g transform="matrix(4.16667,0,0,4.16667,0,0)">            <g transform="matrix(1,0,0,1,313.612,349.536)">                <path d="M0,-0.065C0,-20.703 0.001,-41.34 -0.002,-61.978C-0.002,-62.778 -0.006,-63.579 -0.056,-64.376C-0.107,-65.216 -0.593,-65.689 -1.434,-65.745C-2.071,-65.788 -2.712,-65.799 -3.352,-65.799C-11.11,-65.803 -18.87,-65.805 -26.629,-65.8C-30.187,-65.798 -30.196,-65.79 -30.196,-62.169C-30.198,-20.733 -30.198,20.702 -30.196,62.138C-30.196,62.777 -30.18,63.417 -30.157,64.056C-30.119,65.118 -29.551,65.66 -28.498,65.697C-27.859,65.719 -27.219,65.734 -26.579,65.734C-18.9,65.737 -11.221,65.74 -3.542,65.734C-0.009,65.732 -0.001,65.724 -0.001,62.088C0.002,41.371 0,20.653 0,-0.065" style="fill:white;fill-rule:nonzero;"></path>            </g>        </g>        <g transform="matrix(4.16667,0,0,4.16667,0,0)">            <g transform="matrix(1,0,0,1,461.662,471.936)">                <path d="M0,20.534C10.072,20.534 20.144,20.543 30.216,20.529C33.151,20.524 33.404,20.274 33.419,17.413C33.441,12.936 33.429,8.46 33.425,3.983C33.422,0.011 33.406,-0.008 29.406,-0.008C9.741,-0.011 -9.924,-0.009 -29.588,-0.009C-30.067,-0.009 -30.548,-0.023 -31.026,0.002C-32.944,0.1 -33.28,0.363 -33.296,2.275C-33.337,7.631 -33.337,12.986 -33.292,18.342C-33.277,20.13 -32.933,20.406 -31.175,20.516C-30.538,20.557 -29.896,20.535 -29.257,20.535C-19.505,20.535 -9.753,20.535 0,20.534" style="fill:white;fill-rule:nonzero;"></path>            </g>        </g>        <g transform="matrix(4.16667,0,0,4.16667,0,0)">            <g transform="matrix(0.999961,0.00880782,0.00880782,-0.999961,368.953,501.131)">                <path d="M0.145,-0.002C9.427,-0.029 16.256,7.098 16.373,16.406C16.49,25.633 8.86,33.097 0.145,32.924C-9.289,32.734 -16.129,25.777 -15.936,16.155C-15.755,7.048 -9.845,0.231 0.145,-0.002" style="fill:white;fill-rule:nonzero;"></path>            </g>        </g>    </g></svg>